<?xml version="1.0" encoding="UTF-8" standalone="no"?>
<svg
   width="202.64001"
   zoomAndPan="magnify"
   viewBox="0 0 151.98002 61.241071"
   height="81.654762"
   preserveAspectRatio="xMidYMid"
   version="1.0"
   id="svg3168"
   sodipodi:docname="logo.svg"
   inkscape:version="1.2.2 (b0a8486541, 2022-12-01)"
   xmlns:inkscape="http://www.inkscape.org/namespaces/inkscape"
   xmlns:sodipodi="http://sodipodi.sourceforge.net/DTD/sodipodi-0.dtd"
   xmlns="http://www.w3.org/2000/svg"
   xmlns:svg="http://www.w3.org/2000/svg">
  <sodipodi:namedview
     id="namedview3170"
     pagecolor="#000000"
     bordercolor="#000000"
     borderopacity="0.25"
     inkscape:showpageshadow="2"
     inkscape:pageopacity="0"
     inkscape:pagecheckerboard="0"
     inkscape:deskcolor="#d1d1d1"
     showgrid="false"
     inkscape:zoom="3.22"
     inkscape:cx="88.664596"
     inkscape:cy="99.534161"
     inkscape:window-width="1920"
     inkscape:window-height="1014"
     inkscape:window-x="0"
     inkscape:window-y="29"
     inkscape:window-maximized="1"
     inkscape:current-layer="svg3168" />
  <defs
     id="defs2906">
    <g
       id="g2892" />
    <clipPath
       id="6ebce6297b">
      <path
         d="M 124,96.289062 H 251 V 235.78906 H 124 Z m 0,0"
         clip-rule="nonzero"
         id="path2894" />
    </clipPath>
    <clipPath
       id="eb0133338b">
      <path
         d="M 146.42578,123.53906 H 216 V 176 h -69.57422 z m 0,0"
         clip-rule="nonzero"
         id="path2897" />
    </clipPath>
    <clipPath
       id="77836fd051">
      <path
         d="M 146.42578,189 H 174 v 13 h -27.57422 z m 0,0"
         clip-rule="nonzero"
         id="path2900" />
    </clipPath>
    <clipPath
       id="415b1ac72e">
      <path
         d="m 197,148 h 43.17578 v 31 H 197 Z m 0,0"
         clip-rule="nonzero"
         id="path2903" />
    </clipPath>
    <rect
       x="70.248245"
       y="157.44489"
       width="643.98987"
       height="519.46716"
       id="rect1278" />
  </defs>
  <g
     clip-path="url(#6ebce6297b)"
     id="g2914"
     transform="matrix(0.30839046,0,0,0.30839046,18.134222,-29.704265)">
    <path
       fill="#ffffff"
       d="m 187.42187,235.75781 -0.55859,-0.16406 c -17.35156,-5.44141 -31.33594,-15.11719 -41.65234,-28.75391 -8.20313,-10.875 -14.07032,-24.28906 -17.41016,-39.82422 -5.67187,-26.35546 -2.19531,-49.41796 -2.02734,-50.39453 l 0.16406,-1.14062 61.45703,-19.160158 61.45313,19.160158 0.16796,1.14062 c 0.13672,0.97657 3.61329,24.03907 -2.03125,50.39453 -3.33593,15.53516 -9.20312,28.94922 -17.40625,39.82422 -10.28906,13.63672 -24.30468,23.3125 -41.65625,28.75391 z M 129.25,118.29688 c -0.64063,4.96484 -2.69922,25.54296 2.16797,48.05078 3.22656,15.0039 8.87109,27.88671 16.76562,38.3164 9.70703,12.85547 22.91407,22.03125 39.23828,27.2461 16.35157,-5.24219 29.5586,-14.41797 39.26172,-27.30079 7.89844,-10.45703 13.51563,-23.37109 16.74219,-38.375 4.83984,-22.47656 2.78125,-43.0039 2.14063,-47.93749 l -58.17188,-18.12891 z m 0,0"
       fill-opacity="1"
       fill-rule="nonzero"
       id="path2912" />
  </g>
  <g
     clip-path="url(#eb0133338b)"
     id="g2918"
     transform="matrix(0.30839046,0,0,0.30839046,18.134222,-29.704265)">
    <path
       fill="#ffffff"
       d="m 196.41016,175.64844 h -44.17188 c -3.20312,0 -5.8125,-2.60157 -5.8125,-5.80469 v -40.26172 c 0,-3.20312 2.60938,-5.80469 5.8125,-5.80469 h 57.87891 c 3.20312,0 5.8164,2.60157 5.8164,5.80469 v 15.16016 c 0,0.41406 -0.33984,0.74609 -0.75,0.74609 -0.41406,0 -0.75,-0.33203 -0.75,-0.74609 v -15.16016 c 0,-2.375 -1.9375,-4.3125 -4.3164,-4.3125 h -57.87891 c -2.37891,0 -4.31641,1.9375 -4.31641,4.3125 v 40.26172 c 0,2.375 1.9375,4.3125 4.31641,4.3125 h 44.17188 c 0.41406,0 0.74609,0.33203 0.74609,0.74219 0,0.41406 -0.33203,0.75 -0.74609,0.75"
       fill-opacity="1"
       fill-rule="nonzero"
       id="path2916" />
  </g>
  <path
     fill="#ffffff"
     d="M 78.705241,26.868517 H 67.705579 c -0.07709,0 -0.148172,-0.03855 -0.191542,-0.102391 -0.04216,-0.06263 -0.0518,-0.14215 -0.02289,-0.213224 l 0.95288,-2.404481 c 0.04698,-0.118058 0.180698,-0.175878 0.298754,-0.128898 0.119258,0.04697 0.177084,0.179493 0.1301,0.297547 l -0.827595,2.090065 h 10.659951 c 0.127693,0 0.230087,0.102401 0.230087,0.230088 0,0.127691 -0.102402,0.231293 -0.230087,0.231293"
     fill-opacity="1"
     fill-rule="nonzero"
     id="path2920"
     style="stroke-width:0.308391" />
  <g
     clip-path="url(#77836fd051)"
     id="g2924"
     transform="matrix(0.30839046,0,0,0.30839046,18.134222,-29.704265)">
    <path
       fill="#ffffff"
       d="m 149.74219,191.37891 c -1.00391,0 -1.82032,0.8125 -1.82032,1.8164 v 5.10547 c 0,1.00391 0.81641,1.82031 1.82032,1.82031 h 21.79297 v -8.74218 z m 22.54297,10.23828 h -22.54297 c -1.82813,0 -3.31641,-1.48828 -3.31641,-3.31641 v -5.10547 c 0,-1.82422 1.48828,-3.30859 3.31641,-3.30859 h 22.54297 c 0.40625,0 0.74609,0.33203 0.74609,0.74219 v 10.23828 c 0,0.41406 -0.33984,0.75 -0.74609,0.75"
       fill-opacity="1"
       fill-rule="nonzero"
       id="path2922" />
  </g>
  <path
     fill="#ffffff"
     d="m 76.783823,31.587132 h -5.518502 c -0.127695,0 -0.231293,-0.103592 -0.231293,-0.230086 0,-0.127694 0.103592,-0.231294 0.231293,-0.231294 h 5.28721 v -0.926377 h -5.28721 c -0.127695,0 -0.231293,-0.103592 -0.231293,-0.230088 0,-0.127692 0.103592,-0.230087 0.231293,-0.230087 h 5.518502 c 0.127693,0 0.230088,0.102391 0.230088,0.230087 v 1.387759 c 0,0.126489 -0.102402,0.230086 -0.230088,0.230086"
     fill-opacity="1"
     fill-rule="nonzero"
     id="path2926"
     style="stroke-width:0.308391" />
  <path
     fill="#ffffff"
     d="m 79.044951,32.807443 c -0.03735,0 -0.07589,-0.0096 -0.109621,-0.0277 l -2.261127,-1.220311 c -0.112033,-0.06023 -0.154196,-0.199972 -0.09275,-0.312005 0.06023,-0.112033 0.199969,-0.154194 0.312006,-0.09275 l 2.167164,1.169716 2.173187,-0.860121 v -1.602187 l -2.173187,-0.860119 -2.167164,1.169715 c -0.112033,0.06023 -0.251775,0.01927 -0.312006,-0.09275 -0.06143,-0.112033 -0.01927,-0.251774 0.09275,-0.312005 l 2.261127,-1.22031 c 0.06023,-0.03252 0.132512,-0.03615 0.195153,-0.012 l 2.418938,0.957694 c 0.08794,0.03493 0.145763,0.119258 0.145763,0.213225 v 1.915395 c 0,0.09395 -0.05782,0.178287 -0.145763,0.213221 l -2.418938,0.956494 c -0.0277,0.01201 -0.05662,0.01687 -0.08553,0.01687"
     fill-opacity="1"
     fill-rule="nonzero"
     id="path2928"
     style="stroke-width:0.308391" />
  <path
     fill="#ffffff"
     d="m 86.082521,29.672942 c -0.450545,0 -0.854099,-0.320435 -0.942042,-0.779407 l -0.162626,-0.854096 c -0.770975,-0.08794 -1.515449,-0.346941 -2.174393,-0.757726 l -0.66015,0.568595 c -0.401148,0.344529 -1.007085,0.299957 -1.354026,-0.09998 l -0.752907,-0.870963 c -0.16624,-0.193949 -0.249361,-0.439697 -0.230087,-0.696287 0.01927,-0.255386 0.13733,-0.486679 0.33128,-0.65292 l 0.657738,-0.566187 C 80.484509,24.253224 80.336337,23.478633 80.365247,22.70284 L 79.543679,22.417338 C 79.302748,22.333018 79.107592,22.159542 78.99556,21.929455 78.884739,21.699364 78.870277,21.43916 78.9534,21.198231 l 0.167447,-0.47704 c 0.04216,-0.12047 0.173469,-0.183108 0.293936,-0.14215 0.120457,0.04216 0.18431,0.17347 0.142147,0.29273 l -0.167444,0.478246 c -0.04337,0.125283 -0.03615,0.260205 0.02169,0.379466 0.05782,0.119257 0.159012,0.209608 0.284297,0.252974 l 0.985404,0.342124 c 0.09879,0.03493 0.161422,0.131305 0.154197,0.234906 -0.05662,0.813136 0.09757,1.633504 0.449333,2.367139 0.04577,0.09275 0.02169,0.205994 -0.05782,0.273455 l -0.787842,0.678215 c -0.101201,0.08673 -0.162627,0.207201 -0.172264,0.339713 -0.0096,0.132509 0.03372,0.260204 0.120457,0.360192 l 0.751703,0.872165 c 0.179491,0.207201 0.49511,0.230087 0.703514,0.0518 l 0.790251,-0.680628 c 0.0795,-0.06866 0.192745,-0.07468 0.279479,-0.01686 0.678219,0.455357 1.464854,0.728813 2.2792,0.792659 0.103591,0.0096 0.189128,0.08553 0.208403,0.186722 l 0.195157,1.023952 c 0.05058,0.269841 0.313206,0.446926 0.581848,0.395125 l 1.132368,-0.214428 c 0.269842,-0.05179 0.446924,-0.312004 0.396332,-0.58064 L 87.510029,27.38651 c -0.0193,-0.101191 0.03257,-0.203587 0.126483,-0.249362 0.733635,-0.355373 1.364875,-0.90108 1.826252,-1.574478 0.06021,-0.08553 0.168654,-0.121669 0.266229,-0.08673 l 0.986609,0.343326 c 0.259001,0.09034 0.543299,-0.04698 0.633645,-0.305984 l 0.167449,-0.478241 c 0.04097,-0.12047 0.173474,-0.183108 0.29273,-0.140944 0.121669,0.04216 0.184316,0.173469 0.142152,0.293933 l -0.166241,0.477042 c -0.173474,0.498727 -0.722792,0.761339 -1.222722,0.587871 L 89.742247,25.96744 c -0.461378,0.625213 -1.060087,1.140804 -1.745538,1.503403 l 0.162627,0.850482 c 0.09757,0.519203 -0.244539,1.020339 -0.763751,1.120324 l -1.133573,0.214428 c -0.05901,0.01091 -0.120458,0.01687 -0.179488,0.01687"
     fill-opacity="1"
     fill-rule="nonzero"
     id="path2930"
     style="stroke-width:0.308391" />
  <g
     clip-path="url(#415b1ac72e)"
     id="g2934"
     transform="matrix(0.30839046,0,0,0.30839046,18.134222,-29.704265)">
    <path
       fill="#ffffff"
       d="m 238.66016,178.49609 c -0.082,0 -0.16797,-0.0156 -0.2461,-0.043 -0.39062,-0.13671 -0.59765,-0.5625 -0.46094,-0.95312 l 0.53907,-1.54688 c 0.14453,-0.40234 0.11718,-0.84375 -0.0664,-1.23046 -0.1875,-0.38672 -0.51562,-0.67579 -0.92187,-0.82032 l -3.19922,-1.11328 c -0.31641,-0.10937 -0.52344,-0.41797 -0.5,-0.7539 0.1875,-2.64454 -0.31641,-5.29688 -1.45313,-7.67579 -0.14844,-0.30468 -0.0703,-0.66796 0.1875,-0.88671 l 2.55469,-2.20313 c 0.67578,-0.57812 0.75,-1.59766 0.16797,-2.26953 l -2.44141,-2.82813 c -0.57812,-0.66796 -1.60156,-0.74609 -2.27734,-0.16406 l -2.5625,2.20313 c -0.25781,0.21875 -0.62891,0.24218 -0.91016,0.0547 -2.1914,-1.47265 -4.74609,-2.35937 -7.38672,-2.57421 -0.33593,-0.0234 -0.61328,-0.27344 -0.67578,-0.60157 l -0.63281,-3.32031 c -0.16406,-0.87109 -1.01172,-1.44922 -1.88672,-1.28125 l -3.67187,0.69922 c -0.42579,0.0781 -0.79297,0.32031 -1.03516,0.67187 -0.24219,0.35938 -0.33594,0.78516 -0.25,1.21094 l 0.62891,3.30469 c 0.0625,0.33203 -0.10157,0.66406 -0.40625,0.81641 -2.37891,1.15234 -4.42579,2.91796 -5.92579,5.10156 -0.1914,0.28125 -0.54687,0.39453 -0.86328,0.28515 l -3.19922,-1.11328 c -0.83593,-0.29297 -1.75781,0.15235 -2.05078,0.98828 l -0.54297,1.55079 c -0.13671,0.38671 -0.5625,0.59375 -0.95312,0.45703 -0.39063,-0.13672 -0.59766,-0.5625 -0.46094,-0.94922 l 0.53906,-1.54688 c 0.57032,-1.61718 2.34766,-2.47265 3.96485,-1.91015 l 2.66406,0.92578 c 1.5,-2.02344 3.4375,-3.69531 5.66016,-4.875 l -0.52735,-2.75781 c -0.15625,-0.81641 0.0156,-1.64063 0.48438,-2.32813 0.46875,-0.68359 1.17578,-1.14453 1.99609,-1.30078 l 3.67188,-0.69922 c 1.6875,-0.32031 3.3125,0.78906 3.63672,2.47266 l 0.52734,2.76953 c 2.5,0.28515 4.91406,1.125 7.05078,2.45312 l 2.14063,-1.83984 c 1.30078,-1.11719 3.26953,-0.96875 4.38671,0.32031 l 2.44532,2.83203 c 1.11718,1.29297 0.97265,3.25782 -0.32813,4.375 l -2.13281,1.83203 c 1.00781,2.30469 1.48437,4.8125 1.39062,7.33204 l 2.66797,0.92578 c 0.78516,0.27734 1.41407,0.83203 1.77344,1.58203 0.36328,0.75 0.41016,1.58594 0.13672,2.37109 l -0.54297,1.55078 c -0.10547,0.30469 -0.39453,0.5 -0.70312,0.5"
       fill-opacity="1"
       fill-rule="nonzero"
       id="path2932" />
  </g>
  <path
     fill="#ffffff"
     d="m 85.534402,20.05622 c -0.431265,0 -0.860121,0.09637 -1.260064,0.289116 -0.698699,0.336097 -1.223925,0.923966 -1.479312,1.653986 -0.527634,1.50822 0.273455,3.163411 1.785293,3.689842 0.732427,0.254182 1.519064,0.20961 2.218968,-0.125282 0.697492,-0.337302 1.222716,-0.923967 1.479311,-1.655187 0.255386,-0.730019 0.20961,-1.516656 -0.127699,-2.214149 -0.336093,-0.696286 -0.925169,-1.221516 -1.657597,-1.475697 -0.313207,-0.108415 -0.637253,-0.162628 -0.9589,-0.162629 z m 0.0049,6.256953 c -0.373444,0 -0.74809,-0.06263 -1.111894,-0.189129 -1.751561,-0.609554 -2.679144,-2.528562 -2.06718,-4.27651 0.295139,-0.845664 0.904693,-1.527495 1.713013,-1.916596 0.810728,-0.389104 1.722648,-0.442109 2.571932,-0.145765 0.848071,0.293938 1.531108,0.902283 1.92262,1.7094 0.390306,0.808318 0.442103,1.719035 0.14576,2.564701 -0.296345,0.848073 -0.904689,1.527495 -1.714217,1.917802 -0.462584,0.224064 -0.960107,0.336097 -1.460034,0.336097"
     fill-opacity="1"
     fill-rule="nonzero"
     id="path2936"
     style="stroke-width:0.308391" />
  <path
     fill="#ffffff"
     d="m 83.556364,23.543682 c 0.295142,-0.839639 1.09021,-1.402211 1.980445,-1.402211 0.233706,0 0.466206,0.03975 0.690271,0.116846 0.528837,0.185518 0.954079,0.562573 1.197419,1.066116 0.04336,0.08793 0.07709,0.178289 0.106014,0.268639 0.166241,-0.513181 0.130105,-1.061299 -0.106014,-1.547976 -0.24334,-0.503546 -0.668582,-0.881805 -1.197419,-1.064912 -0.224065,-0.07951 -0.456565,-0.118058 -0.690271,-0.118058 -0.890235,0 -1.685303,0.563776 -1.980445,1.403418 -0.15058,0.43488 -0.152989,0.897465 -0.01326,1.327526 0.0048,-0.01687 0.0096,-0.03252 0.01326,-0.04938"
     fill-opacity="1"
     fill-rule="nonzero"
     id="path2938"
     style="stroke-width:0.308391" />
  <path
     fill="#ffffff"
     d="m 64.560239,10.257595 v 6.073845 l 5.994339,-6.5978683 h -5.471522 c -0.289115,0 -0.522817,0.234907 -0.522817,0.5240233"
     fill-opacity="1"
     fill-rule="nonzero"
     id="path2940"
     style="stroke-width:0.308391" />
  <g
     fill="#ffffff"
     fill-opacity="1"
     id="g2978"
     transform="matrix(0.43950722,0,0,0.43950722,18.967661,-43.730987)">
    <g
       transform="translate(153.62742,258.70176)"
       id="g2976">
      <g
         id="g2974" />
    </g>
  </g>
  <g
     fill="#ffffff"
     fill-opacity="1"
     id="g3104"
     transform="matrix(0.43950722,0,0,0.43950722,18.967661,-43.730987)">
    <g
       transform="translate(180.56802,276.13733)"
       id="g3102">
      <g
         id="g3100" />
    </g>
  </g>
  <g
     fill="#ffffff"
     fill-opacity="1"
     id="g3118"
     transform="matrix(0.43950722,0,0,0.43950722,18.967661,-43.730987)">
    <g
       transform="translate(203.43512,276.13733)"
       id="g3116">
      <g
         id="g3114" />
    </g>
  </g>
  <text
     xml:space="preserve"
     transform="matrix(0.24558886,0,0,0.23113851,-20.187919,9.8543347)"
     id="text1276"
     style="font-style:normal;font-variant:normal;font-weight:normal;font-stretch:normal;font-size:41.972px;line-height:1.1;font-family:C059;-inkscape-font-specification:'C059, Normal';font-variant-ligatures:normal;font-variant-caps:normal;font-variant-numeric:normal;font-variant-east-asian:normal;text-align:center;letter-spacing:1.47559px;white-space:pre;shape-inside:url(#rect1278);display:inline;fill:#fffdfd;fill-opacity:1;stroke:none;stroke-width:2.90646;stroke-linejoin:bevel;stroke-miterlimit:4.9;paint-order:markers stroke fill"
     x="215.02988"
     y="0"><tspan
       x="208.49227"
       y="190.47728"
       id="tspan363">URGENCE PC 91</tspan></text>
  <text
     xml:space="preserve"
     style="font-style:normal;font-variant:normal;font-weight:normal;font-stretch:normal;font-size:5px;font-family:FontAwesome;-inkscape-font-specification:'FontAwesome, Normal';font-variant-ligatures:normal;font-variant-caps:normal;font-variant-numeric:normal;font-variant-east-asian:normal;text-align:center;letter-spacing:2.03538px;word-spacing:-1.17035px;text-anchor:middle;fill:#fffdfd;fill-opacity:1;stroke:none;stroke-width:0.672245;stroke-linejoin:bevel;stroke-miterlimit:4.9;paint-order:markers stroke fill"
     x="75.877701"
     y="60.201035"
     id="text5981"><tspan
       sodipodi:role="line"
       id="tspan467"
       x="76.895393"
       y="60.201035"
       style="font-style:normal;font-variant:normal;font-weight:normal;font-stretch:normal;font-size:5px;font-family:FontAwesome;-inkscape-font-specification:'FontAwesome, Normal';font-variant-ligatures:normal;font-variant-caps:normal;font-variant-numeric:normal;font-variant-east-asian:normal;stroke-width:0.672245">La solution informatique à domicile</tspan></text>
</svg>
